{"title":"Agnez Mo Ft. Timbaland &amp; T.I. - Coke Bottle [Music Video] 72","uid":10043479,"size":74014356,"categoryP":"video","categoryS":"music_videos","magnet":"?xt=urn:btih:6991afdba0e1016fb9b17420ca83a45551571904&amp;dn=Agnez+Mo+Ft.+Timbaland+%26amp%3B+T.I.+-+Coke+Bottle+%5BMusic+Video%5D+72&amp;tr=udp%3A%2F%2Ftracker.openbittorrent.com%3A80&amp;tr=udp%3A%2F%2Fopen.demonii.com%3A1337&amp;tr=udp%3A%2F%2Ftracker.coppersurfer.tk%3A6969&amp;tr=udp%3A%2F%2Fexodus.desync.com%3A6969","seeders":1,"leechers":0,"uploader":"Sbyky","files":1,"time":1398499869,"description":"\n\nGeneral\nComplete name                            : Agnez Mo Ft. Timbaland &amp; T.I. - Coke Bottle [Music Video] 720p [Sbyky].MP4\nFormat                                   : MPEG-4\nFormat profile                           : Base Media\nCodec ID                                 : isom\nFile size                                : 70.6 MiB\nDuration                                 : 4mn 24s\nOverall bit rate mode                    : Variable\nOverall bit rate                         : 2 238 Kbps\nEncoded date                             : UTC 2014-03-27 20:31:18\nTagged date                              : UTC 2014-03-27 20:31:18\n\nVideo\nID                                       : 1\nFormat                                   : AVC\nFormat/Info                              : Advanced Video Codec\nFormat profile                           : &lt;a class=&quot;__cf_email__&quot; href=&quot;/cdn-cgi/l/email-protection&quot; data-cfemail=&quot;9fd2fef6f1dfd3acb1ae&quot;&gt;[email&amp;#160;protected]&lt;/a&gt;&lt;script cf-hash='f9e31' type=&quot;text/javascript&quot;&gt;\n/* &lt;![CDATA[ */!function(){try{var t=&quot;currentScript&quot;in document?document.currentScript:function(){for(var t=document.getElementsByTagName(&quot;script&quot;),e=t.length;e--;)if(t[e].getAttribute(&quot;cf-hash&quot;))return t[e]}();if(t&amp;&amp;t.previousSibling){var e,r,n,i,c=t.previousSibling,a=c.getAttribute(&quot;data-cfemail&quot;);if(a){for(e=&quot;&quot;,r=parseInt(a.substr(0,2),16),n=2;a.length-n;n+=2)i=parseInt(a.substr(n,2),16)^r,e+=String.fromCharCode(i);e=document.createTextNode(e),c.parentNode.replaceChild(e,c)}}}catch(u){}}();/* ]]&gt; */&lt;/script&gt;\nFormat settings, CABAC                   : Yes\nFormat settings, ReFrames                : 3 frames\nCodec ID                                 : avc1\nCodec ID/Info                            : Advanced Video Coding\nDuration                                 : 4mn 24s\nBit rate                                 : 2 110 Kbps\nWidth                                    : 1 280 pixels\nHeight                                   : 720 pixels\nDisplay aspect ratio                     : 16:9\nFrame rate mode                          : Variable\nFrame rate                               : 23.976 fps\nMinimum frame rate                       : 23.974 fps\nMaximum frame rate                       : 24.122 fps\nColor space                              : YUV\nChroma subsampling                       : 4:2:0\nBit depth                                : 8 bits\nScan type                                : Progressive\nBits/(Pixel*Frame)                       : 0.095\nStream size                              : 66.5 MiB (94%)\nEncoded date                             : UTC 2014-03-27 20:31:18\nTagged date                              : UTC 2014-03-27 20:31:18\n\nAudio\nID                                       : 2\nFormat                                   : AAC\nFormat/Info                              : Advanced Audio Codec\nFormat profile                           : LC\nCodec ID                                 : 40\nDuration                                 : 4mn 24s\nBit rate mode                            : Variable\nBit rate                                 : 126 Kbps\nChannel(s)                               : 2 channels\nChannel positions                        : Front: L R\nSampling rate                            : 44.1 KHz\nCompression mode                         : Lossy\nStream size                              : 3.96 MiB (6%)\nEncoded date                             : UTC 2014-03-27 20:32:07\nTagged date                              : UTC 2014-03-27 20:32:07\n\nShared By Sbyky\n","torrent":{"xt":"urn:btih:6991afdba0e1016fb9b17420ca83a45551571904","amp;dn":"Agnez+Mo+Ft.+Timbaland+%26amp%3B+T.I.+-+Coke+Bottle+%5BMusic+Video%5D+72","amp;tr":["udp%3A%2F%2Ftracker.openbittorrent.com%3A80","udp%3A%2F%2Fopen.demonii.com%3A1337","udp%3A%2F%2Ftracker.coppersurfer.tk%3A6969","udp%3A%2F%2Fexodus.desync.com%3A6969"],"infoHash":"6991afdba0e1016fb9b17420ca83a45551571904","infoHashBuffer":{"type":"Buffer","data":[105,145,175,219,160,225,1,111,185,177,116,32,202,131,164,85,81,87,25,4]},"announce":[],"urlList":[]}}